<?xml version="1.0" encoding="utf-8"?>
<svg id="logo" viewBox="0 0 200 200" version="1.1" xmlns="http://www.w3.org/2000/svg" x="0px" y="0px" width="200px" height="200px" enable-background="new 0 0 200 200">
  <g transform="matrix(-0.97456294298172, 0, 0, -0.9751105904579161, 999.6862182617189, 442.7302856445312)">
    <path d="M 1020.400009 350.899994 A 97.199997 97.199997 0 0 1 923.200012 448.099991 A 97.199997 97.199997 0 0 1 826.000015 350.899994 A 97.199997 97.199997 0 0 1 923.200012 253.699997 A 97.199997 97.199997 0 0 1 1020.400009 350.899994 Z" id="XMLID_440_" fill="#2993bb"/>
  </g>
  <path d="M 999.600014 350.899994 A 76.400002 76.400002 0 0 1 923.200012 427.299995 A 76.400002 76.400002 0 0 1 846.800011 350.899994 A 76.400002 76.400002 0 0 1 923.200012 274.499992 A 76.400002 76.400002 0 0 1 999.600014 350.899994 Z" id="XMLID_439_" fill="#56b6da" transform="matrix(-0.97456294298172, 0, 0, -0.9751105904579161, 999.6862182617189, 442.7302856445312)"/>
  <g transform="matrix(-0.97456294298172, 0, 0, -0.9751105904579161, 999.6862182617189, 442.7302856445312)">
    <g>
      <path fill="#2993bb" d="M922,339.4c1.7,1.8,4.6,3.9,8.6,6.5c4,2.5,7.2,4.9,9.6,6.9c2.4,2.1,4.3,4.7,5.5,7.8&#10;&#9;&#9;&#9;&#9;&#9;c1.3,3.1,1.3,6.8,0.1,10.9c-1.6,5.3-4.6,9.1-9.2,11.4c-3.5,1.7-7.4,2.5-11.8,2.3c-2.5-0.1-4.8,1.5-5.5,3.9l-1.1,3.6&#10;&#9;&#9;&#9;&#9;&#9;c-0.8,2.9-3.9,4.5-6.7,3.7l0,0c-2.9-0.8-4.5-3.9-3.7-6.7l1-3.6c0.7-2.4-0.3-5-2.6-6.3c-2.7-1.5-5.2-3.1-7.5-5.1&#10;&#9;&#9;&#9;&#9;&#9;c-2.1-1.8-4-3.7-5.7-5.7c-1.7-2.1-1.6-5.1,0.2-7.1l1.7-1.8c2.2-2.4,6-2.3,8.2,0.2c1.6,1.8,3.4,3.6,5.3,5.2c3.7,3,7.2,5,10.6,6&#10;&#9;&#9;&#9;&#9;&#9;c3,0.9,5.4,1,7.4,0.4c2-0.6,3.3-1.9,3.9-4c0.5-1.6,0.3-3.1-0.5-4.5c-0.8-1.4-2-2.7-3.5-3.8c-1.5-1.2-3.7-2.6-6.5-4.3&#10;&#9;&#9;&#9;&#9;&#9;c-4-2.5-7.2-4.7-9.6-6.7c-2.4-2-4.2-4.5-5.5-7.6c-1.3-3.1-1.3-6.6-0.1-10.7c1.4-5,4.4-8.6,8.7-10.9c3.3-1.8,7.2-2.6,11.5-2.5&#10;&#9;&#9;&#9;&#9;&#9;c2.5,0,4.7-1.5,5.4-3.9l0.8-2.9c0.8-2.9,3.9-4.5,6.7-3.7l0,0c2.9,0.8,4.5,3.9,3.7,6.7l-0.8,2.6c-0.7,2.5,0.4,5.1,2.7,6.3&#10;&#9;&#9;&#9;&#9;&#9;c2,1.1,3.9,2.2,5.8,3.5c1.4,1,2.6,2,3.8,3c2.2,2,2.5,5.4,0.5,7.7l-1.9,2.2c-2,2.3-5.4,2.4-7.7,0.4c-1.6-1.4-3.3-2.7-5.1-3.9&#10;&#9;&#9;&#9;&#9;&#9;c-3.3-2.2-6.3-3.7-8.9-4.5c-2.5-0.7-4.6-0.8-6.3-0.4c-1.7,0.5-2.8,1.6-3.3,3.4C919.8,335.6,920.3,337.6,922,339.4z"/>
    </g>
  </g>
</svg>